<?xml version="1.0" encoding="utf-8"?>
<svg xmlns="http://www.w3.org/2000/svg" viewBox="0 0 500 500" xmlns:bx="https://boxy-svg.com">
  <defs>
    <radialGradient gradientUnits="userSpaceOnUse" cx="151.099" cy="131.157" r="29.743" id="gradient-1" spreadMethod="pad" gradientTransform="matrix(1, 0, 0, 0.842122, 0.762683, 22.409966)">
      <stop offset="0" style="stop-color: rgb(216, 216, 216)"/>
      <stop offset="1" style="stop-color: rgb(48.42% 48.42% 48.42%)"/>
    </radialGradient>
  </defs>
  <rect x="-1.034" y="-0.671" width="101.907" height="501.041" style="fill: rgb(216, 216, 216); stroke: rgb(0, 0, 0); stroke-width: 1;"/>
  <rect x="100.023" y="-0.671" width="100.417" height="501.041" style="fill: rgb(216, 216, 216); stroke: rgb(0, 0, 0); stroke-width: 1; pointer-events: none;"/>
  <rect x="200.231" y="-0.671" width="101.907" height="501.041" style="fill: rgb(216, 216, 216); stroke: rgb(0, 0, 0); stroke-width: 1;"/>
  <rect x="300.439" y="-0.671" width="101.907" height="501.041" style="fill: rgb(216, 216, 216); stroke: rgb(0, 0, 0); stroke-width: 1; pointer-events: none;"/>
  <rect x="399.798" y="-0.7" width="101.907" height="500.919" style="fill: rgb(216, 216, 216); stroke: rgb(0, 0, 0); stroke-width: 1;"/>
  <line style="fill: none; stroke: rgb(0, 0, 0); stroke-width: 1;" x1="-1.544" y1="98.887" x2="501.371" y2="99.874"/>
  <line style="fill: none; stroke: rgb(0, 0, 0); stroke-width: 1;" x1="-0.77" y1="199.079" x2="501.316" y2="199.931"/>
  <line style="fill: none; stroke: rgb(0, 0, 0); stroke-width: 1;" x1="-0.88" y1="299.688" x2="501.316" y2="299.688"/>
  <line style="fill: none; stroke: rgb(0, 0, 0); stroke-width: 1;" x1="-1.091" y1="399.445" x2="501.316" y2="400.298"/>
  <rect x="-1.053" y="-0.695" width="100.896" height="99.976" style="stroke: rgb(0, 0, 0); fill: rgb(239, 207, 248); stroke-width: 1;"/>
  <rect x="16.874" y="17.506" width="65.637" height="63.289" style="fill: rgb(226, 140, 247); paint-order: stroke markers; stroke: rgb(226, 140, 247); stroke-width: 1;" rx="5" ry="5"/>
  <g transform="matrix(1.732497, 0, 0, 1.664552, 29.226357, 28.171451)" style="">
    <path d="M5 11.1005L7 9.1005L12.5 14.6005L16 11.1005L19 14.1005V5H5V11.1005ZM4 3H20C20.5523 3 21 3.44772 21 4V20C21 20.5523 20.5523 21 20 21H4C3.44772 21 3 20.5523 3 20V4C3 3.44772 3.44772 3 4 3ZM15.5 10C14.6716 10 14 9.32843 14 8.5C14 7.67157 14.6716 7 15.5 7C16.3284 7 17 7.67157 17 8.5C17 9.32843 16.3284 10 15.5 10Z" style="fill: rgb(178, 0, 193);"/>
  </g>
  <path d="M 4.266 15.719 H 14.923 L 14.923 13.537 L 19.706 16.91 L 14.923 20.282 L 14.923 18.1 H 4.266 V 15.719 Z" bx:shape="arrow 4.266 13.537 15.44 6.745 2.381 4.783 0 1@6ac6b461" style="fill: rgb(122, 16, 149); stroke: rgb(122, 16, 149); stroke-width: 1;" transform="matrix(0.711847, -0.702335, 0.702335, 0.711847, 6.09684, 67.975992)"/>
  <path d="M 4.266 15.719 H 14.923 L 14.923 13.537 L 19.706 16.91 L 14.923 20.282 L 14.923 18.1 H 4.266 V 15.719 Z" bx:shape="arrow 4.266 13.537 15.44 6.745 2.381 4.783 0 1@6ac6b461" style="fill: rgb(122, 16, 149); stroke: rgb(122, 16, 149); stroke-width: 1;" transform="matrix(-0.711847, -0.702335, -0.702335, 0.711847, 93.519563, 67.467765)"/>
  <path d="M -4.266 -11.355 H 6.391 L 6.391 -13.537 L 11.174 -10.165 L 6.391 -6.792 L 6.391 -8.974 H -4.266 V -11.355 Z" bx:shape="arrow -4.266 -13.537 15.44 6.745 2.381 4.783 0 1@b43bed3e" style="fill: rgb(122, 16, 149); stroke: rgb(122, 16, 149); stroke-width: 1;" transform="matrix(-0.711847, 0.702335, -0.702335, -0.711847, 68.07123, 16.815381)"/>
  <path d="M 4.266 15.719 H 14.923 L 14.923 13.537 L 19.706 16.91 L 14.923 20.282 L 14.923 18.1 H 4.266 V 15.719 Z" bx:shape="arrow 4.266 13.537 15.44 6.745 2.381 4.783 0 1@6ac6b461" style="fill: rgb(122, 16, 149); stroke: rgb(122, 16, 149); stroke-width: 1;" transform="matrix(0.711847, 0.702335, 0.702335, -0.711847, 6.24394, 30.708919)"/>
  <rect x="100.131" y="-0.632" width="100.096" height="99.83" style="stroke: rgb(0, 0, 0); fill: rgb(226, 238, 252); pointer-events: none;"/>
  <g transform="matrix(1, 0, 0, 1.054033, -6.373853, -2.696473)" style="">
    <rect x="135.167" y="25.07" width="53.888" height="37.826" style="fill: rgb(53, 85, 123); stroke: rgb(53, 85, 123);" rx="2" ry="2">
      <title>rec1</title>
    </rect>
    <rect x="123.549" y="45.778" width="37.79" height="28.96" style="stroke: rgb(255, 255, 255); fill: rgb(255, 255, 255);" rx="2" ry="2"/>
    <path d="M 131.68 48.265 C 131.68 47.439 132.48 46.772 133.466 46.772 L 158.471 46.772 C 159.46 46.772 160.257 47.439 160.257 48.265 L 160.257 66.178 C 160.257 67.002 159.46 67.67 158.471 67.67 L 153.114 67.67 L 153.114 72.149 C 153.114 72.975 152.313 73.642 151.327 73.642 L 126.322 73.642 C 125.332 73.642 124.536 72.975 124.536 72.149 L 124.536 54.235 C 124.536 53.412 125.332 52.743 126.322 52.743 L 131.68 52.743 L 131.68 48.265 Z M 135.252 52.743 L 151.327 52.743 C 152.313 52.743 153.114 53.412 153.114 54.235 L 153.114 64.685 L 156.685 64.685 L 156.685 49.757 L 135.252 49.757 L 135.252 52.743 Z M 149.541 65.788 L 149.541 55.729 L 128.108 55.729 L 128.108 70.107 L 141.488 59.671 L 149.541 65.788 Z M 133.466 62.447 C 134.945 62.447 136.145 61.443 136.145 60.207 C 136.145 58.971 134.945 57.967 133.466 57.967 C 131.984 57.967 130.787 58.971 130.787 60.207 C 130.787 61.443 131.984 62.447 133.466 62.447 Z" style="fill: rgb(63, 101, 146);"/>
  </g>
  <path d="M 52.334 1.172 H 69.02 L 69.02 -0.828 L 72.383 1.978 L 69.02 4.784 L 69.02 2.783 H 52.334 V 1.172 Z" bx:shape="arrow 52.334 -0.828 20.049 5.612 1.611 3.363 0 1@3f378f7a" style="fill: rgb(255, 255, 255); stroke: rgb(255, 255, 255); transform-box: fill-box; transform-origin: 50% 50%;" transform="matrix(-0.787997, 0.615679, -0.615679, -0.787997, 106.255201, 33.263906)"/>
  <rect x="200.223" y="-0.652" width="100.222" height="100.002" style="fill: rgb(217, 217, 217); stroke: rgb(0, 0, 0);"/>
  <rect x="300.393" y="-0.528" width="99.404" height="100.002" style="stroke-width: 1; stroke: rgb(0, 0, 0); fill: rgb(146, 200, 246); pointer-events: none;"/>
  <g>
    <g transform="matrix(3.339635, 0, 0, 2.961245, 210.973181, 14.170273)" style="">
      <path d="M17.5858 5L20.1421 2.44365L21.5563 3.85786L19 6.41421V17H22V19H19V22H17V7H9V5H17.5858ZM15 17V19H6C5.44772 19 5 18.5523 5 18V7H2V5H5V2H7V17H15ZM9 9H15V15H9V9Z" style="fill: rgb(90, 90, 90);"/>
    </g>
  </g>
  <rect x="236.946" y="36.797" width="28.616" height="26.014" style="stroke: rgb(43, 43, 43); fill-opacity: 0.74; fill: rgb(141, 141, 141);" rx="2" ry="2"/>
  <g transform="matrix(0.883619, 0, 0, 0.891459, 15.152851, -10.564397)" style="">
    <g transform="matrix(1.560206, 0, 0, 1.402542, 248.495079, 50.829355)" style="">
      <path d="M5 11.1005L7 9.1005L12.5 14.6005L16 11.1005L19 14.1005V5H5V11.1005ZM4 3H20C20.5523 3 21 3.44772 21 4V20C21 20.5523 20.5523 21 20 21H4C3.44772 21 3 20.5523 3 20V4C3 3.44772 3.44772 3 4 3ZM15.5 10C14.6716 10 14 9.32843 14 8.5C14 7.67157 14.6716 7 15.5 7C16.3284 7 17 7.67157 17 8.5C17 9.32843 16.3284 10 15.5 10Z" style="fill: rgb(51, 51, 51);"/>
    </g>
  </g>
  <g transform="matrix(1, 0, 0, 1, 1.956959, 2.906395)">
    <g transform="matrix(1, 0, 0, 1, 10.17616, 1.174172)">
      <rect x="310.289" y="15.96" width="38.443" height="46.82" style="fill: rgb(101, 145, 180); stroke: rgb(0, 0, 0);" rx="2" ry="2"/>
    </g>
    <g transform="matrix(-1.620647, 0, 0, 1.918237, 377.804973, 31.587247)" style="">
      <path d="M3 8L9.00319 2H19.9978C20.5513 2 21 2.45531 21 2.9918V21.0082C21 21.556 20.5551 22 20.0066 22H3.9934C3.44476 22 3 21.5501 3 20.9932V8ZM10 3.5L4.5 9H10V3.5Z" style="fill: rgb(16, 95, 130);"/>
    </g>
    <rect x="340.894" y="53.522" width="34.463" height="13.591" style="stroke: rgb(0, 0, 0); fill: rgb(185, 217, 246);"/>
    <text style="fill: rgb(51, 51, 51); font-family: Arial, sans-serif; font-size: 28px; font-weight: 700; white-space: pre;" transform="matrix(0.397248, 0, 0, 0.404127, 213.12638, 44.8182)" x="336.514" y="48.507">JPG</text>
    <rect x="346.989" y="43.213" width="11.449" height="0.443" style="stroke: rgb(0, 0, 0); stroke-width: 1;" rx="0.2" ry="0.2"/>
    <rect x="347.014" y="41.18" width="11.449" height="0.443" style="stroke: rgb(0, 0, 0); stroke-width: 1;" rx="0.2" ry="0.2"/>
    <rect x="347.014" y="45.383" width="11.449" height="0.443" style="stroke: rgb(0, 0, 0); stroke-width: 1;" rx="0.2" ry="0.2"/>
    <path d="M 55.892 1.03 H 67.814 L 67.814 -0.62 L 71.899 1.88 L 67.814 4.38 L 67.814 2.729 H 55.892 V 1.03 Z" bx:shape="arrow 55.892 -0.62 16.007 5 1.699 4.085 0 1@8ddfcd55" style="fill: rgb(255, 255, 255); stroke: rgb(255, 255, 255); transform-box: fill-box; transform-origin: 50% 50%;" transform="matrix(0.788061, 0.615597, -0.615597, 0.788061, 269.002247, 25.423784)"/>
  </g>
  <rect x="399.747" y="-0.649" width="102.012" height="100.155" style="stroke: rgb(0, 0, 0); fill: rgb(146, 200, 246);"/>
  <g transform="matrix(1, 0, 0, 1, 102.006908, 2.987172)">
    <g transform="matrix(0.874385, 0, 0, 0.864042, 69.698939, 16.614558)" style="">
      <rect x="312.088" y="12.529" width="38.443" height="49.887" style="fill: rgb(101, 145, 180); stroke: rgb(0, 0, 0);" rx="2" ry="2"/>
    </g>
    <g transform="matrix(-1.620647, 0, 0, 1.918237, 376.861339, 33.160008)" style="">
      <path d="M 15.507 -2.75 L 21.51 -8.75 L 32.505 -8.75 C 33.058 -8.75 33.507 -8.295 33.507 -7.759 L 33.507 10.258 C 33.507 10.806 33.062 11.25 32.513 11.25 L 16.5 11.25 C 15.952 11.25 15.507 10.8 15.507 10.243 L 15.507 -2.75 Z M 22.507 -7.25 L 17.007 -1.75 L 22.507 -1.75 L 22.507 -7.25 Z" style="fill: rgb(16, 95, 130);"/>
    </g>
    <rect x="319.821" y="34.411" width="34.463" height="13.591" style="stroke: rgb(0, 0, 0); fill: rgb(185, 217, 246);"/>
    <text style="fill: rgb(51, 51, 51); font-family: Arial, sans-serif; font-size: 28px; font-weight: 700; white-space: pre;" transform="matrix(0.397248, 0, 0, 0.404127, 192.818029, 25.232405)" x="336.514" y="48.507">JPG</text>
    <path d="M 55.892 1.03 H 67.814 L 67.814 -0.62 L 71.899 1.88 L 67.814 4.38 L 67.814 2.729 H 55.892 V 1.03 Z" bx:shape="arrow 55.892 -0.62 16.007 5 1.699 4.085 0 1@8ddfcd55" style="fill: rgb(255, 255, 255); stroke: rgb(255, 255, 255); transform-box: fill-box; transform-origin: 50% 50%;" transform="matrix(0.788061, 0.615597, -0.615597, 0.788061, 300.731038, 57.895643)"/>
    <rect x="-103.05" y="96.293" width="101.067" height="99.897" style="stroke: rgb(0, 0, 0); fill: rgb(253, 253, 253); pointer-events: none;"/>
    <g transform="matrix(2.693572, 0, 0, 2.580591, -68.925867, 99.50439)" style="">
      <g/>
      <g>
        <g>
          <g>
            <path d="M19,19h2v2h-2V19z M19,17h2v-2h-2V17z M3,13h2v-2H3V13z M3,17h2v-2H3V17z M3,9h2V7H3V9z M3,5h2V3H3V5z M7,5h2V3H7V5z M15,21h2v-2h-2V21z M11,21h2v-2h-2V21z M15,21h2v-2h-2V21z M7,21h2v-2H7V21z M3,21h2v-2H3V21z M21,8c0-2.76-2.24-5-5-5h-5v2h5 c1.65,0,3,1.35,3,3v5h2V8z" style="fill: rgb(67, 135, 242);"/>
          </g>
        </g>
      </g>
    </g>
    <g transform="matrix(-2.693572, 0, 0, 2.580591, -36.442014, 99.708461)" style="">
      <g/>
      <g>
        <g>
          <g>
            <path d="M19,19h2v2h-2V19z M19,17h2v-2h-2V17z M3,13h2v-2H3V13z M3,17h2v-2H3V17z M3,9h2V7H3V9z M3,5h2V3H3V5z M7,5h2V3H7V5z M15,21h2v-2h-2V21z M11,21h2v-2h-2V21z M15,21h2v-2h-2V21z M7,21h2v-2H7V21z M3,21h2v-2H3V21z M21,8c0-2.76-2.24-5-5-5h-5v2h5 c1.65,0,3,1.35,3,3v5h2V8z" style="fill: rgb(67, 135, 242);"/>
          </g>
        </g>
      </g>
    </g>
    <g transform="matrix(-2.693572, 0, 0, -2.580591, -36.206247, 192.66773)" style="">
      <g/>
      <g>
        <g>
          <g>
            <path d="M19,19h2v2h-2V19z M19,17h2v-2h-2V17z M3,13h2v-2H3V13z M3,17h2v-2H3V17z M3,9h2V7H3V9z M3,5h2V3H3V5z M7,5h2V3H7V5z M15,21h2v-2h-2V21z M11,21h2v-2h-2V21z M15,21h2v-2h-2V21z M7,21h2v-2H7V21z M3,21h2v-2H3V21z M21,8c0-2.76-2.24-5-5-5h-5v2h5 c1.65,0,3,1.35,3,3v5h2V8z" style="fill: rgb(67, 135, 242);"/>
          </g>
        </g>
      </g>
    </g>
    <g transform="matrix(2.693572, 0, 0, -2.580591, -68.786219, 192.19042)" style="">
      <g/>
      <g>
        <g>
          <g>
            <path d="M19,19h2v2h-2V19z M19,17h2v-2h-2V17z M3,13h2v-2H3V13z M3,17h2v-2H3V17z M3,9h2V7H3V9z M3,5h2V3H3V5z M7,5h2V3H7V5z M15,21h2v-2h-2V21z M11,21h2v-2h-2V21z M15,21h2v-2h-2V21z M7,21h2v-2H7V21z M3,21h2v-2H3V21z M21,8c0-2.76-2.24-5-5-5h-5v2h5 c1.65,0,3,1.35,3,3v5h2V8z" style="fill: rgb(67, 135, 242);"/>
          </g>
        </g>
      </g>
    </g>
    <rect x="-62.391" y="105.038" width="20.037" height="82.811" style="stroke: rgb(255, 255, 255); fill: rgb(255, 255, 255);"/>
    <rect x="-95.465" y="136.811" width="84.978" height="17.262" style="fill: rgb(255, 255, 255); stroke: rgb(255, 255, 255);"/>
    <g transform="matrix(2.912608, 0, 0, 2.957289, -87.366786, 109.940135)" style="">
      <path d="M 7.602 6.135 L 5.498 6.135 L 5.498 8.164 L 7.602 8.164 L 7.602 6.135 Z M 2.343 5.373 C 2.343 4.111 3.402 3.089 4.709 3.089 L 8.39 3.089 C 9.698 3.089 10.757 4.111 10.757 5.373 L 10.757 8.925 C 10.757 10.187 9.698 11.208 8.39 11.208 L 4.709 11.208 C 3.402 11.208 2.343 10.187 2.343 8.925 L 2.343 5.373 Z M 4.709 4.612 C 4.273 4.612 3.92 4.953 3.92 5.373 L 3.92 8.925 C 3.92 9.345 4.273 9.687 4.709 9.687 L 8.39 9.687 C 8.826 9.687 9.179 9.345 9.179 8.925 L 9.179 5.373 C 9.179 4.953 8.826 4.612 8.39 4.612 L 4.709 4.612 Z M 5.498 16.283 L 7.602 16.283 L 7.602 18.314 L 5.498 18.314 L 5.498 16.283 Z M 2.343 15.522 C 2.343 14.261 3.402 13.239 4.709 13.239 L 8.39 13.239 C 9.698 13.239 10.757 14.261 10.757 15.522 L 10.757 19.075 C 10.757 20.336 9.698 21.358 8.39 21.358 L 4.709 21.358 C 3.402 21.358 2.343 20.336 2.343 19.075 L 2.343 15.522 Z M 4.709 14.761 C 4.273 14.761 3.92 15.102 3.92 15.522 L 3.92 19.075 C 3.92 19.494 4.273 19.835 4.709 19.835 L 8.39 19.835 C 8.826 19.835 9.179 19.494 9.179 19.075 L 9.179 15.522 C 9.179 15.102 8.826 14.761 8.39 14.761 L 4.709 14.761 Z M 18.12 6.135 L 16.016 6.135 L 16.016 8.164 L 18.12 8.164 L 18.12 6.135 Z M 15.227 3.089 C 13.92 3.089 12.861 4.111 12.861 5.373 L 12.861 8.925 C 12.861 10.187 13.92 11.208 15.227 11.208 L 18.908 11.208 C 20.216 11.208 21.275 10.187 21.275 8.925 L 21.275 5.373 C 21.275 4.111 20.216 3.089 18.908 3.089 L 15.227 3.089 Z M 14.438 5.373 C 14.438 4.953 14.792 4.612 15.227 4.612 L 18.908 4.612 C 19.344 4.612 19.697 4.953 19.697 5.373 L 19.697 8.925 C 19.697 9.345 19.344 9.687 18.908 9.687 L 15.227 9.687 C 14.792 9.687 14.438 9.345 14.438 8.925 L 14.438 5.373 Z M 12.861 13.239 L 15.753 13.239 L 15.753 16.029 L 12.861 16.029 L 12.861 13.239 Z M 18.382 16.029 L 15.753 16.029 L 15.753 18.567 L 12.861 18.567 L 12.861 21.358 L 15.753 21.358 L 15.753 18.567 L 18.382 18.567 L 18.382 21.358 L 21.275 21.358 L 21.275 18.567 L 18.382 18.567 L 18.382 16.029 Z M 18.382 16.029 L 18.382 13.239 L 21.275 13.239 L 21.275 16.029 L 18.382 16.029 Z" fill="#212121" style=""/>
      <rect x="29.263" y="-4.619" width="34.456" height="33.866" style="stroke: rgb(0, 0, 0); stroke-width: 0.340721px; fill: rgb(89, 188, 196);"/>
    </g>
    <g transform="matrix(1, 0, 0, 1, 152.531972, -44.234273)">
      <g transform="matrix(2.693572, 0, 0, 2.580591, -119.55952, 144.72855)" style="">
        <g/>
        <g>
          <g>
            <g>
              <path d="M19,19h2v2h-2V19z M19,17h2v-2h-2V17z M3,13h2v-2H3V13z M3,17h2v-2H3V17z M3,9h2V7H3V9z M3,5h2V3H3V5z M7,5h2V3H7V5z M15,21h2v-2h-2V21z M11,21h2v-2h-2V21z M15,21h2v-2h-2V21z M7,21h2v-2H7V21z M3,21h2v-2H3V21z M21,8c0-2.76-2.24-5-5-5h-5v2h5 c1.65,0,3,1.35,3,3v5h2V8z" style="fill: rgb(61, 61, 61);"/>
            </g>
          </g>
        </g>
      </g>
      <g transform="matrix(-2.693572, 0, 0, 2.580591, -87.075663, 144.932622)" style="">
        <g/>
        <g>
          <g>
            <g>
              <path d="M 19 19 L 21 19 L 21 21 L 19 21 L 19 19 Z M 19 17 L 21 17 L 21 15 L 19 15 L 19 17 Z M 3 13 L 5 13 L 5 11 L 3 11 L 3 13 Z M 3 17 L 5 17 L 5 15 L 3 15 L 3 17 Z M 3 9 L 5 9 L 5 7 L 3 7 L 3 9 Z M 3 5 L 5 5 L 5 3 L 3 3 L 3 5 Z M 7 5 L 9 5 L 9 3 L 7 3 L 7 5 Z M 15 21 L 17 21 L 17 19 L 15 19 L 15 21 Z M 11 21 L 13 21 L 13 19 L 11 19 L 11 21 Z M 15 21 L 17 21 L 17 19 L 15 19 L 15 21 Z M 7 21 L 9 21 L 9 19 L 7 19 L 7 21 Z M 3 21 L 5 21 L 5 19 L 3 19 L 3 21 Z M 21 8 C 21 5.24 18.76 3 16 3 L 11 3 L 11 5 L 16 5 C 17.65 5 19 6.35 19 8 L 19 13 L 21 13 L 21 9.563 L 21 8 Z" style="fill: rgb(61, 61, 61);"/>
            </g>
          </g>
        </g>
      </g>
      <g transform="matrix(-2.693572, 0, 0, -2.580591, -86.8399, 237.891899)" style="">
        <g/>
        <g>
          <g>
            <g>
              <path d="M19,19h2v2h-2V19z M19,17h2v-2h-2V17z M3,13h2v-2H3V13z M3,17h2v-2H3V17z M3,9h2V7H3V9z M3,5h2V3H3V5z M7,5h2V3H7V5z M15,21h2v-2h-2V21z M11,21h2v-2h-2V21z M15,21h2v-2h-2V21z M7,21h2v-2H7V21z M3,21h2v-2H3V21z M21,8c0-2.76-2.24-5-5-5h-5v2h5 c1.65,0,3,1.35,3,3v5h2V8z" style="fill: rgb(61, 61, 61);"/>
            </g>
          </g>
        </g>
      </g>
      <g transform="matrix(2.693572, 0, 0, -2.580591, -119.419872, 237.414588)" style="">
        <g/>
        <g>
          <g>
            <g>
              <path d="M19,19h2v2h-2V19z M19,17h2v-2h-2V17z M3,13h2v-2H3V13z M3,17h2v-2H3V17z M3,9h2V7H3V9z M3,5h2V3H3V5z M7,5h2V3H7V5z M15,21h2v-2h-2V21z M11,21h2v-2h-2V21z M15,21h2v-2h-2V21z M7,21h2v-2H7V21z M3,21h2v-2H3V21z M21,8c0-2.76-2.24-5-5-5h-5v2h5 c1.65,0,3,1.35,3,3v5h2V8z" style="fill: rgb(61, 61, 61);"/>
            </g>
          </g>
        </g>
      </g>
      <rect x="-113.03" y="150.262" width="20.037" height="82.811" style="stroke-width: 1; fill: rgb(89, 188, 196); stroke: rgb(89, 188, 196);"/>
      <rect x="-146.1" y="182.035" width="84.978" height="17.262" style="stroke-width: 1; fill: rgb(89, 188, 196); stroke: rgb(89, 188, 196);"/>
    </g>
  </g>
  <g transform="matrix(3.188341, 0, 0, 3.174219, 112.931804, 111.878726)" style="">
    <path d="M8 6H6V8H8V6ZM3 5.25C3 4.00736 4.00736 3 5.25 3H8.75C9.99264 3 11 4.00736 11 5.25V8.75C11 9.99264 9.99264 11 8.75 11H5.25C4.00736 11 3 9.99264 3 8.75V5.25ZM5.25 4.5C4.83579 4.5 4.5 4.83579 4.5 5.25V8.75C4.5 9.16421 4.83579 9.5 5.25 9.5H8.75C9.16421 9.5 9.5 9.16421 9.5 8.75V5.25C9.5 4.83579 9.16421 4.5 8.75 4.5H5.25ZM6 16H8V18H6V16ZM3 15.25C3 14.0074 4.00736 13 5.25 13H8.75C9.99264 13 11 14.0074 11 15.25V18.75C11 19.9926 9.99264 21 8.75 21H5.25C4.00736 21 3 19.9926 3 18.75V15.25ZM5.25 14.5C4.83579 14.5 4.5 14.8358 4.5 15.25V18.75C4.5 19.1642 4.83579 19.5 5.25 19.5H8.75C9.16421 19.5 9.5 19.1642 9.5 18.75V15.25C9.5 14.8358 9.16421 14.5 8.75 14.5H5.25ZM18 6H16V8H18V6ZM15.25 3C14.0074 3 13 4.00736 13 5.25V8.75C13 9.99264 14.0074 11 15.25 11H18.75C19.9926 11 21 9.99264 21 8.75V5.25C21 4.00736 19.9926 3 18.75 3H15.25ZM14.5 5.25C14.5 4.83579 14.8358 4.5 15.25 4.5H18.75C19.1642 4.5 19.5 4.83579 19.5 5.25V8.75C19.5 9.16421 19.1642 9.5 18.75 9.5H15.25C14.8358 9.5 14.5 9.16421 14.5 8.75V5.25ZM13 13H15.75V15.75H13V13ZM18.25 15.75H15.75V18.25H13V21H15.75V18.25H18.25V21H21V18.25H18.25V15.75ZM18.25 15.75V13H21V15.75H18.25Z" fill="#212121"/>
  </g>
  <rect x="120.829" y="121.37" width="62.284" height="16.038" style="stroke: rgb(89, 188, 196); fill: rgb(89, 188, 196);"/>
  <g transform="matrix(1, 0, 0, 1, 191.096228, -1.340763)">
    <g transform="matrix(1, 0, 0, 1, 10.17616, 1.174172)"/>
    <rect x="237.839" y="27.096" width="11.449" height="0.443" style="stroke: rgb(0, 0, 0); stroke-width: 1;" rx="0.2" ry="0.2"/>
    <rect x="237.864" y="25.063" width="11.449" height="0.443" style="stroke: rgb(0, 0, 0); stroke-width: 1;" rx="0.2" ry="0.2"/>
    <rect x="237.864" y="29.266" width="11.449" height="0.443" style="stroke: rgb(0, 0, 0); stroke-width: 1;" rx="0.2" ry="0.2"/>
  </g>
  <rect x="122.117" y="130.827" width="59.487" height="4.067" style="fill: url(&quot;#gradient-1&quot;); stroke: rgb(0, 0, 0); stroke-opacity: 0.3;" rx="1" ry="1"/>
</svg>